# Blender v2.83.2 OBJ File: 'Chip.blend'
# www.blender.org
mtllib Chip.mtl
o Cylinder
v 0.000000 -0.435649 -1.000000
v 0.000000 0.435649 -1.000000
v 0.382683 -0.435649 -0.923880
v 0.382683 0.435649 -0.923880
v 0.707107 -0.435649 -0.707107
v 0.707107 0.435649 -0.707107
v 0.923880 -0.435649 -0.382683
v 0.923880 0.435649 -0.382683
v 1.000000 -0.435649 0.000000
v 1.000000 0.435649 0.000000
v 0.923880 -0.435649 0.382684
v 0.923880 0.435649 0.382684
v 0.707107 -0.435649 0.707107
v 0.707107 0.435649 0.707107
v 0.382683 -0.435649 0.923880
v 0.382683 0.435649 0.923880
v 0.000000 -0.435649 1.000000
v 0.000000 0.435649 1.000000
v -0.382683 -0.435649 0.923880
v -0.382683 0.435649 0.923880
v -0.707107 -0.435649 0.707107
v -0.707107 0.435649 0.707107
v -0.923880 -0.435649 0.382684
v -0.923880 0.435649 0.382684
v -1.000000 -0.435649 -0.000000
v -1.000000 0.435649 -0.000000
v -0.923879 -0.435649 -0.382684
v -0.923879 0.435649 -0.382684
v -0.707107 -0.435649 -0.707107
v -0.707107 0.435649 -0.707107
v -0.382683 -0.435649 -0.923880
v -0.382683 0.435649 -0.923880
v 0.000000 -0.104170 -1.000000
v 0.000000 0.104170 -1.000000
v 0.382683 0.104170 -0.923880
v 0.382683 -0.104170 -0.923880
v 0.707107 0.104170 -0.707107
v 0.707107 -0.104170 -0.707107
v 0.923880 0.104170 -0.382683
v 0.923880 -0.104170 -0.382683
v 1.000000 0.104170 0.000000
v 1.000000 -0.104170 0.000000
v 0.923880 0.104170 0.382684
v 0.923880 -0.104170 0.382684
v 0.707107 0.104170 0.707107
v 0.707107 -0.104170 0.707107
v 0.382683 0.104170 0.923880
v 0.382683 -0.104170 0.923880
v 0.000000 0.104170 1.000000
v 0.000000 -0.104170 1.000000
v -0.382683 0.104170 0.923880
v -0.382683 -0.104170 0.923880
v -0.707107 0.104170 0.707107
v -0.707107 -0.104170 0.707107
v -0.923880 0.104170 0.382684
v -0.923880 -0.104170 0.382684
v -1.000000 0.104170 -0.000000
v -1.000000 -0.104170 -0.000000
v -0.923879 0.104170 -0.382684
v -0.923879 -0.104170 -0.382684
v -0.707107 0.104170 -0.707107
v -0.707107 -0.104170 -0.707107
v -0.382683 0.104170 -0.923880
v -0.382683 -0.104170 -0.923880
v 0.000000 -0.089387 -0.858093
v 0.000000 0.089387 -0.858093
v 0.328378 0.089387 -0.792775
v 0.328378 -0.089387 -0.792775
v 0.606763 0.089387 -0.606763
v 0.606763 -0.089387 -0.606763
v 0.792775 0.089387 -0.328378
v 0.792775 -0.089387 -0.328378
v 0.858093 0.089387 0.000000
v 0.858093 -0.089387 0.000000
v 0.792775 0.089387 0.328378
v 0.792775 -0.089387 0.328378
v 0.606763 0.089387 0.606763
v 0.606763 -0.089387 0.606763
v 0.328378 0.089387 0.792775
v 0.328378 -0.089387 0.792775
v 0.000000 0.089387 0.858093
v 0.000000 -0.089387 0.858093
v -0.328378 0.089387 0.792775
v -0.328378 -0.089387 0.792775
v -0.606763 0.089387 0.606764
v -0.606763 -0.089387 0.606764
v -0.792775 0.089387 0.328378
v -0.792775 -0.089387 0.328378
v -0.858093 0.089387 -0.000000
v -0.858093 -0.089387 -0.000000
v -0.792774 0.089387 -0.328378
v -0.792774 -0.089387 -0.328378
v -0.606763 0.089387 -0.606764
v -0.606763 -0.089387 -0.606764
v -0.328378 0.089387 -0.792775
v -0.328378 -0.089387 -0.792775
vt 0.937500 0.833333
vt 0.875000 0.833333
vt 0.875000 0.833333
vt 0.937500 0.833333
vt 0.062500 0.666667
vt 0.125000 0.666667
vt 0.125000 0.666667
vt 0.062500 0.666667
vt 0.500000 0.833333
vt 0.437500 0.833333
vt 0.437500 0.833333
vt 0.500000 0.833333
vt 0.875000 0.666667
vt 0.937500 0.666667
vt 0.937500 0.666667
vt 0.875000 0.666667
vt 0.062500 0.833333
vt 0.000000 0.833333
vt 0.000000 0.833333
vt 0.062500 0.833333
vt 0.437500 0.666667
vt 0.500000 0.666667
vt 0.500000 0.666667
vt 0.437500 0.666667
vt 0.812500 0.833333
vt 0.812500 0.833333
vt 0.000000 0.666667
vt 0.000000 0.666667
vt 0.375000 0.833333
vt 0.375000 0.833333
vt 0.812500 0.666667
vt 0.812500 0.666667
vt 0.375000 0.666667
vt 0.375000 0.666667
vt 0.750000 0.833333
vt 0.750000 0.833333
vt 0.312500 0.833333
vt 0.312500 0.833333
vt 0.750000 0.666667
vt 0.750000 0.666667
vt 0.312500 0.666667
vt 0.312500 0.666667
vt 0.687500 0.833333
vt 0.687500 0.833333
vt 0.125000 0.833333
vt 0.187500 0.666667
vt 0.187500 0.833333
vt 0.250000 0.666667
vt 0.250000 0.833333
vt 0.562500 0.666667
vt 0.562500 0.833333
vt 0.625000 0.666667
vt 0.625000 0.833333
vt 0.687500 0.666667
vt 1.000000 0.666667
vt 1.000000 0.833333
vt 0.562500 0.666667
vt 0.125000 0.833333
vt 1.000000 0.666667
vt 0.562500 0.833333
vt 0.187500 0.666667
vt 1.000000 0.833333
vt 0.625000 0.666667
vt 0.187500 0.833333
vt 0.625000 0.833333
vt 0.250000 0.666667
vt 0.687500 0.666667
vt 0.250000 0.833333
vt 1.000000 1.000000
vt 0.937500 1.000000
vt 0.875000 1.000000
vt 0.812500 1.000000
vt 0.750000 1.000000
vt 0.687500 1.000000
vt 0.625000 1.000000
vt 0.562500 1.000000
vt 0.500000 1.000000
vt 0.437500 1.000000
vt 0.375000 1.000000
vt 0.312500 1.000000
vt 0.250000 1.000000
vt 0.187500 1.000000
vt 0.125000 1.000000
vt 0.341844 0.471731
vt 0.250000 0.490000
vt 0.158156 0.471731
vt 0.080294 0.419706
vt 0.028269 0.341844
vt 0.010000 0.250000
vt 0.028269 0.158156
vt 0.080294 0.080294
vt 0.158156 0.028269
vt 0.250000 0.010000
vt 0.341844 0.028269
vt 0.419706 0.080294
vt 0.471731 0.158156
vt 0.490000 0.250000
vt 0.471731 0.341844
vt 0.419706 0.419706
vt 0.062500 1.000000
vt 0.000000 1.000000
vt 0.750000 0.490000
vt 0.841844 0.471731
vt 0.919706 0.419706
vt 0.971731 0.341844
vt 0.990000 0.250000
vt 0.971731 0.158156
vt 0.919706 0.080294
vt 0.841844 0.028269
vt 0.750000 0.010000
vt 0.658156 0.028269
vt 0.580294 0.080294
vt 0.528269 0.158156
vt 0.510000 0.250000
vt 0.528269 0.341844
vt 0.580294 0.419706
vt 0.658156 0.471731
vt 0.062500 0.500000
vt 0.000000 0.500000
vt 0.125000 0.500000
vt 0.187500 0.500000
vt 0.250000 0.500000
vt 0.312500 0.500000
vt 0.375000 0.500000
vt 0.437500 0.500000
vt 0.500000 0.500000
vt 0.562500 0.500000
vt 0.625000 0.500000
vt 0.687500 0.500000
vt 0.750000 0.500000
vt 0.812500 0.500000
vt 0.875000 0.500000
vt 0.937500 0.500000
vt 1.000000 0.500000
vn 0.0587 -0.9944 -0.0878
vn -0.0587 0.9944 -0.0878
vn -0.0206 -0.9944 0.1036
vn 0.0587 0.9944 -0.0878
vn -0.0206 -0.9944 -0.1036
vn -0.0206 0.9944 0.1036
vn 0.0878 -0.9944 -0.0587
vn -0.0206 0.9944 -0.1036
vn -0.0587 -0.9944 0.0878
vn 0.0878 0.9944 -0.0587
vn -0.0587 0.9944 0.0878
vn 0.1036 -0.9944 -0.0206
vn -0.0878 -0.9944 0.0587
vn 0.1036 0.9944 -0.0206
vn -0.0878 0.9944 0.0587
vn 0.1036 -0.9944 0.0206
vn -0.1951 0.0000 -0.9808
vn -0.5556 0.0000 -0.8315
vn -0.8315 0.0000 -0.5556
vn -0.9808 0.0000 -0.1951
vn -0.9808 0.0000 0.1951
vn -0.8315 0.0000 0.5556
vn -0.5556 0.0000 0.8315
vn -0.1951 0.0000 0.9808
vn 0.1951 0.0000 0.9808
vn 0.5556 0.0000 0.8315
vn 0.8315 0.0000 0.5556
vn 0.9808 0.0000 0.1951
vn 0.9808 0.0000 -0.1951
vn 0.8315 0.0000 -0.5556
vn 0.5556 0.0000 -0.8315
vn 0.1951 0.0000 -0.9808
vn 0.0206 0.9944 0.1036
vn -0.0587 -0.9944 -0.0878
vn 0.0206 0.9944 -0.1036
vn 0.0206 -0.9944 0.1036
vn -0.0878 0.9944 -0.0587
vn 0.0206 -0.9944 -0.1036
vn 0.0587 0.9944 0.0878
vn -0.0878 -0.9944 -0.0587
vn 0.0587 -0.9944 0.0878
vn -0.1036 0.9944 -0.0206
vn 0.0878 0.9944 0.0587
vn -0.1036 -0.9944 -0.0206
vn 0.0878 -0.9944 0.0587
vn -0.1036 0.9944 0.0206
vn 0.1036 0.9944 0.0206
vn -0.1036 -0.9944 0.0206
vn 0.0000 1.0000 -0.0000
vn 0.0000 -1.0000 -0.0000
g Cylinder_Cylinder_Material.001
usemtl Material.001
s off
f 35/1/1 37/2/1 69/3/1 67/4/1
f 64/5/2 62/6/2 94/7/2 96/8/2
f 49/9/3 51/10/3 83/11/3 81/12/3
f 38/13/4 36/14/4 68/15/4 70/16/4
f 63/17/5 34/18/5 66/19/5 95/20/5
f 52/21/6 50/22/6 82/23/6 84/24/6
f 37/2/7 39/25/7 71/26/7 69/3/7
f 33/27/8 64/5/8 96/8/8 65/28/8
f 51/10/9 53/29/9 85/30/9 83/11/9
f 40/31/10 38/13/10 70/16/10 72/32/10
f 54/33/11 52/21/11 84/24/11 86/34/11
f 39/25/12 41/35/12 73/36/12 71/26/12
f 53/29/13 55/37/13 87/38/13 85/30/13
f 42/39/14 40/31/14 72/32/14 74/40/14
f 56/41/15 54/33/15 86/34/15 88/42/15
f 41/35/16 43/43/16 75/44/16 73/36/16
f 96/8/17 95/20/17 66/19/17 65/28/17
f 94/7/18 93/45/18 95/20/18 96/8/18
f 92/46/19 91/47/19 93/45/19 94/7/19
f 90/48/20 89/49/20 91/47/20 92/46/20
f 88/42/21 87/38/21 89/49/21 90/48/21
f 86/34/22 85/30/22 87/38/22 88/42/22
f 84/24/23 83/11/23 85/30/23 86/34/23
f 82/23/24 81/12/24 83/11/24 84/24/24
f 80/50/25 79/51/25 81/12/25 82/23/25
f 78/52/26 77/53/26 79/51/26 80/50/26
f 76/54/27 75/44/27 77/53/27 78/52/27
f 74/40/28 73/36/28 75/44/28 76/54/28
f 72/32/29 71/26/29 73/36/29 74/40/29
f 70/16/30 69/3/30 71/26/30 72/32/30
f 68/15/31 67/4/31 69/3/31 70/16/31
f 65/55/32 66/56/32 67/4/32 68/15/32
f 50/22/33 48/57/33 80/50/33 82/23/33
f 61/58/34 63/17/34 95/20/34 93/45/34
f 36/14/35 33/59/35 65/55/35 68/15/35
f 47/60/36 49/9/36 81/12/36 79/51/36
f 62/6/37 60/61/37 92/46/37 94/7/37
f 34/62/38 35/1/38 67/4/38 66/56/38
f 48/57/39 46/63/39 78/52/39 80/50/39
f 59/64/40 61/58/40 93/45/40 91/47/40
f 45/65/41 47/60/41 79/51/41 77/53/41
f 60/61/42 58/66/42 90/48/42 92/46/42
f 46/63/43 44/67/43 76/54/43 78/52/43
f 57/68/44 59/64/44 91/47/44 89/49/44
f 43/43/45 45/65/45 77/53/45 75/44/45
f 58/66/46 56/41/46 88/42/46 90/48/46
f 44/67/47 42/39/47 74/40/47 76/54/47
f 55/37/48 57/68/48 89/49/48 87/38/48
g Cylinder_Cylinder_Material.002
usemtl Material.002
f 34/62/32 2/69/32 4/70/32 35/1/32
f 35/1/31 4/70/31 6/71/31 37/2/31
f 37/2/30 6/71/30 8/72/30 39/25/30
f 39/25/29 8/72/29 10/73/29 41/35/29
f 41/35/28 10/73/28 12/74/28 43/43/28
f 43/43/27 12/74/27 14/75/27 45/65/27
f 45/65/26 14/75/26 16/76/26 47/60/26
f 47/60/25 16/76/25 18/77/25 49/9/25
f 49/9/24 18/77/24 20/78/24 51/10/24
f 51/10/23 20/78/23 22/79/23 53/29/23
f 53/29/22 22/79/22 24/80/22 55/37/22
f 55/37/21 24/80/21 26/81/21 57/68/21
f 57/68/20 26/81/20 28/82/20 59/64/20
f 59/64/19 28/82/19 30/83/19 61/58/19
f 4/84/49 2/85/49 32/86/49 30/87/49 28/88/49 26/89/49 24/90/49 22/91/49 20/92/49 18/93/49 16/94/49 14/95/49 12/96/49 10/97/49 8/98/49 6/99/49
f 61/58/18 30/83/18 32/100/18 63/17/18
f 63/17/17 32/100/17 2/101/17 34/18/17
g Cylinder_Cylinder_Material.003
usemtl Material.003
f 1/102/50 3/103/50 5/104/50 7/105/50 9/106/50 11/107/50 13/108/50 15/109/50 17/110/50 19/111/50 21/112/50 23/113/50 25/114/50 27/115/50 29/116/50 31/117/50
f 31/118/17 64/5/17 33/27/17 1/119/17
f 29/120/18 62/6/18 64/5/18 31/118/18
f 27/121/19 60/61/19 62/6/19 29/120/19
f 25/122/20 58/66/20 60/61/20 27/121/20
f 23/123/21 56/41/21 58/66/21 25/122/21
f 21/124/22 54/33/22 56/41/22 23/123/22
f 19/125/23 52/21/23 54/33/23 21/124/23
f 17/126/24 50/22/24 52/21/24 19/125/24
f 15/127/25 48/57/25 50/22/25 17/126/25
f 13/128/26 46/63/26 48/57/26 15/127/26
f 11/129/27 44/67/27 46/63/27 13/128/27
f 9/130/28 42/39/28 44/67/28 11/129/28
f 7/131/29 40/31/29 42/39/29 9/130/29
f 5/132/30 38/13/30 40/31/30 7/131/30
f 3/133/31 36/14/31 38/13/31 5/132/31
f 1/134/32 33/59/32 36/14/32 3/133/32
